<svg width="32" height="32" viewBox="0 0 32 32" fill="none" xmlns="http://www.w3.org/2000/svg">
<path d="M16 1C7.7 1 1 7.7 1 16C1 24.3 7.7 31 16 31C24.3 31 31 24.3 31 16C31 7.7 24.3 1 16 1ZM26 16.6H25C24.7 21.1 21.2 24.7 16.7 25V26C16.7 26.4 16.4 26.8 15.9 26.8C15.4 26.8 15.1 26.5 15.1 26V25C10.7 24.6 7.2 21 7 16.6H6C5.6 16.6 5.2 16.3 5.2 15.8C5.2 15.3 5.5 15 6 15H7C7.4 10.8 10.8 7.4 15.1 7V6C15.1 5.6 15.4 5.2 15.9 5.2C16.4 5.2 16.7 5.5 16.7 6V7C21 7.3 24.5 10.7 25 15H26C26.4 15 26.8 15.3 26.8 15.8C26.8 16.3 26.4 16.6 26 16.6Z" fill="#8D55E9"/>
<path d="M21.2 15.8C21.2 15.4 21.5 15 22 15H23.5C23.1 11.5 20.2 8.8 16.7 8.5V9.8C16.7 10.2 16.4 10.6 15.9 10.6C15.4 10.6 15.1 10.3 15.1 9.8V8.6C11.7 9 8.9 11.7 8.5 15.1H10C10.4 15.1 10.8 15.4 10.8 15.9C10.8 16.4 10.5 16.7 10 16.7H8.5C8.8 20.3 11.6 23.2 15.1 23.6V22.3C15.1 21.9 15.4 21.5 15.9 21.5C16.4 21.5 16.7 21.8 16.7 22.3V23.6C20.3 23.3 23.2 20.4 23.5 16.7H22C21.5 16.6 21.2 16.2 21.2 15.8ZM15.9 19.3C13.8 17.4 12.5 16.3 12.5 15C12.5 14 13.3 13.3 14.2 13.3C15 13.3 15.6 13.8 15.9 14.4C16.2 13.8 16.9 13.3 17.6 13.3C18.6 13.3 19.3 14 19.3 15C19.3 16.3 18 17.4 15.9 19.3Z" fill="#8D55E9"/>
<path d="M26.0002 15.1H25.0002C24.6002 10.8 21.1002 7.40001 16.7002 7.10001V6.00001C16.7002 5.60001 16.4002 5.20001 15.9002 5.20001C15.4002 5.20001 15.2002 5.60001 15.2002 6.00001V7.00001C10.9002 7.40001 7.5002 10.8 7.1002 15H6.0002C5.6002 15 5.2002 15.3 5.2002 15.8C5.2002 16.3 5.5002 16.6 6.0002 16.6H7.0002C7.3002 21 10.7002 24.6 15.1002 25V26C15.1002 26.4 15.4002 26.8 15.9002 26.8C16.4002 26.8 16.7002 26.5 16.7002 26V25C21.2002 24.7 24.7002 21.1 25.0002 16.6H26.0002C26.4002 16.6 26.8002 16.3 26.8002 15.8C26.8002 15.3 26.4002 15.1 26.0002 15.1ZM16.7002 23.5V22.2C16.7002 21.8 16.4002 21.4 15.9002 21.4C15.4002 21.4 15.1002 21.7 15.1002 22.2V23.5C11.5002 23.1 8.7002 20.2 8.5002 16.6H10.0002C10.4002 16.6 10.8002 16.3 10.8002 15.8C10.8002 15.3 10.5002 15 10.0002 15H8.6002C9.0002 11.6 11.8002 8.90001 15.2002 8.50001V9.80001C15.2002 10.2 15.5002 10.6 16.0002 10.6C16.5002 10.6 16.8002 10.3 16.8002 9.80001V8.50001C20.3002 8.80001 23.1002 11.5 23.6002 15H22.1002C21.7002 15 21.3002 15.3 21.3002 15.8C21.3002 16.3 21.6002 16.6 22.1002 16.6H23.6002C23.2002 20.2 20.3002 23.1 16.7002 23.5Z" fill="white"/>
<path d="M17.6 13.4C16.8 13.4 16.2 13.9 15.9 14.5C15.6 13.9 14.9 13.4 14.2 13.4C13.2 13.4 12.5 14.1 12.5 15.1C12.5 16.4 13.8 17.5 15.9 19.4C18 17.5 19.3 16.4 19.3 15.1C19.3 14.1 18.6 13.4 17.6 13.4Z" fill="white"/>
</svg>
