<svg width="25" height="21" viewBox="0 0 25 21" fill="none" xmlns="http://www.w3.org/2000/svg">
<path d="M12.5 0.996094C16.5499 0.996094 19.8567 4.19084 19.9958 8.24515L20 8.49609V12.5931L21.38 15.7491C21.4491 15.907 21.4847 16.0775 21.4847 16.2499C21.4847 16.9402 20.9251 17.4999 20.2347 17.4999L15.5 17.5014C15.5 19.1582 14.1569 20.5014 12.5 20.5014C10.9023 20.5014 9.59634 19.2524 9.50509 17.6776L9.49955 17.4991L4.77486 17.4999C4.60353 17.4999 4.43402 17.4646 4.27686 17.3964C3.64366 17.1213 3.35331 16.3851 3.62835 15.7519L5 12.594V8.49599C5.0006 4.3412 8.35209 0.996094 12.5 0.996094ZM13.9995 17.4991L11 17.5014C11 18.3298 11.6716 19.0014 12.5 19.0014C13.2797 19.0014 13.9204 18.4065 13.9931 17.6458L13.9995 17.4991ZM12.5 2.49609C9.17984 2.49609 6.50048 5.17035 6.5 8.49609V12.9057L5.15602 15.9999H19.8525L18.5 12.9067L18.5001 8.50895L18.4964 8.28375C18.3853 5.05027 15.7416 2.49609 12.5 2.49609ZM21.5 7.24987H23.5C23.9142 7.24987 24.25 7.58566 24.25 7.99987C24.25 8.37957 23.9678 8.69336 23.6018 8.74302L23.5 8.74987H21.5C21.0858 8.74987 20.75 8.41408 20.75 7.99987C20.75 7.62017 21.0322 7.30638 21.3982 7.25672L21.5 7.24987ZM1.5 7.24987H3.5C3.91421 7.24987 4.25 7.58566 4.25 7.99987C4.25 8.37957 3.96785 8.69336 3.60177 8.74302L3.5 8.74987H1.5C1.08579 8.74987 0.75 8.41408 0.75 7.99987C0.75 7.62017 1.03215 7.30638 1.39823 7.25672L1.5 7.24987ZM23.1 1.54987C23.3259 1.85112 23.291 2.26702 23.0338 2.52687L22.95 2.59987L20.95 4.09987C20.6186 4.3484 20.1485 4.28124 19.9 3.94987C19.6741 3.64862 19.709 3.23272 19.9662 2.97287L20.05 2.89987L22.05 1.39987C22.3814 1.15134 22.8515 1.2185 23.1 1.54987ZM2.95 1.39987L4.95 2.89987C5.28137 3.1484 5.34853 3.6185 5.1 3.94987C4.85147 4.28124 4.38137 4.3484 4.05 4.09987L2.05 2.59987C1.71863 2.35134 1.65147 1.88124 1.9 1.54987C2.14853 1.2185 2.61863 1.15134 2.95 1.39987Z" fill="#8F761E"/>
</svg>
