<svg width="18" height="18" viewBox="0 0 18 18" fill="none" xmlns="http://www.w3.org/2000/svg">
<path d="M14.75 0C16.5449 0 18 1.45507 18 3.25V14.75C18 16.5449 16.5449 18 14.75 18H3.25C1.45507 18 0 16.5449 0 14.75V3.25C0 1.45507 1.45507 0 3.25 0H14.75ZM14.75 1.5H3.25C2.2835 1.5 1.5 2.2835 1.5 3.25V14.75C1.5 15.7165 2.2835 16.5 3.25 16.5H14.75C15.7165 16.5 16.5 15.7165 16.5 14.75V3.25C16.5 2.2835 15.7165 1.5 14.75 1.5ZM13.25 8C13.6642 8 14 8.33579 14 8.75V13.25C14 13.6642 13.6642 14 13.25 14H4.75C4.33579 14 4 13.6642 4 13.25V8.75C4 8.33579 4.33579 8 4.75 8H13.25ZM12.5 9.5H5.5V12.5H12.5V9.5ZM4.75 4.25H13.25C13.6642 4.25 14 4.58579 14 5C14 5.3797 13.7178 5.69349 13.3518 5.74315L13.25 5.75H4.75C4.33579 5.75 4 5.41421 4 5C4 4.6203 4.28215 4.30651 4.64823 4.25685L4.75 4.25H13.25H4.75Z" fill="#6E6E6E"/>
</svg>
