<svg id="Layer_1" data-name="Layer 1" xmlns="http://www.w3.org/2000/svg" xmlns:xlink="http://www.w3.org/1999/xlink" viewBox="0 0 360 360"><defs><style>.cls-1{fill:url(#linear-gradient);}.cls-2{fill:url(#linear-gradient-2);}.cls-3{fill:url(#linear-gradient-3);}.cls-4{fill:url(#linear-gradient-4);}.cls-5{fill:url(#linear-gradient-5);}</style><linearGradient id="linear-gradient" x1="9.01455" y1="178.00923" x2="301.03078" y2="180.87213" gradientUnits="userSpaceOnUse"><stop offset="0" stop-color="#7d6bc3"/><stop offset="1" stop-color="#4b2e83"/></linearGradient><linearGradient id="linear-gradient-2" x1="9.02303" y1="177.14451" x2="301.03926" y2="180.00741" xlink:href="#linear-gradient"/><linearGradient id="linear-gradient-3" x1="9.06573" y1="172.78922" x2="301.08195" y2="175.65212" xlink:href="#linear-gradient"/><linearGradient id="linear-gradient-4" x1="8.99827" y1="179.66935" x2="301.0145" y2="182.53226" xlink:href="#linear-gradient"/><linearGradient id="linear-gradient-5" x1="8.71085" y1="208.98659" x2="300.72708" y2="211.84949" xlink:href="#linear-gradient"/></defs><path class="cls-1" d="M201.54547,12a5.3296,5.3296,0,0,0,2.6122.53687,163.06014,163.06014,0,0,1,38.33605,6.33866c1.07652.29811,2.1463.622,3.22793.9,6.03269,1.55033,7.90081,5.2923,6.29289,11.506-1.31092,5.066-5.7051,7.46288-10.78817,6.06965A217.99772,217.99772,0,0,0,219.25709,32.256a154.4373,154.4373,0,0,0-18.71792-2.01857c-29.29942-1.23924-56.39023,6.069-81.45776,21.11708A180.00832,180.00832,0,0,0,86.71875,76.70626C66.96242,95.815,55.02348,119.08874,49.51306,145.84648A168.845,168.845,0,0,0,46.4935,187.0687a153.16815,153.16815,0,0,0,9.90332,49.60694,133.74719,133.74719,0,0,0,43.13581,57.72088c16.12929,12.61817,33.76679,22.49334,53.35111,28.71076a137.35282,137.35282,0,0,0,32.23318,6.121c21.29,1.46858,41.827-2.02,61.81822-9.20455a98.58727,98.58727,0,0,0,10.17567-4.0565c5.37462-2.63645,9.624-1.16428,12.25061,4.24982a10.54936,10.54936,0,0,1,1.07352,6.14176c-.42705,3.04733-2.414,4.827-5.13335,5.94494-5.48617,2.25543-11.01634,4.39339-16.626,6.32477a169.45742,169.45742,0,0,1-33.74656,7.74264c-4.69693.60183-9.431.774-14.15087,1.11389a48.95793,48.95793,0,0,1-5.77265.22995,221.24538,221.24538,0,0,1-26.15808-2.38352,161.129,161.129,0,0,1-47.696-15.70539c-37.73151-19.455-65.05331-48.64574-81.532-87.80849a160.08635,160.08635,0,0,1-11.79246-73.9701c2.10864-26.98372,10.6345-51.86771,24.72506-74.8561,23.08577-37.66385,55.9955-62.53809,98.386-74.85816a153.75152,153.75152,0,0,1,27.47927-5.09975c3.04182-.30849,6.09079-.46387,9.13661-.68834.45421-.03347.96865.08952,1.32625-.34512Z"/><path class="cls-2" d="M309.92132,179.9441c-.18619-21.54263-4.88926-41.92767-16.31219-60.377-15.3166-24.738-36.60556-41.98316-64.73878-50.30141a119.97235,119.97235,0,0,0-25.238-4.399,110.32235,110.32235,0,0,0-44.009,5.36944c-14.58379,4.93817-27.46151,12.8224-39.102,22.83434A108.16831,108.16831,0,0,0,94.16822,127.651a17.72551,17.72551,0,0,1-3.28443,5.2141,7.26337,7.26337,0,0,1-6.88471,1.968,11.397,11.397,0,0,1-7.07423-4.16217c-1.9459-2.53771-2.53257-5.39991-.842-8.20114,4.04572-6.7038,7.75745-13.61538,12.23467-20.05392,11.72841-16.86624,26.108-30.85708,44.31673-40.65543a121.928,121.928,0,0,1,39.07869-13.036,162.50649,162.50649,0,0,1,21.06637-1.87065,137.264,137.264,0,0,1,53.23123,8.80609,117.47936,117.47936,0,0,1,48.68883,34.90081c14.13924,16.86149,24.33672,35.80238,29.68147,57.23633a116.55832,116.55832,0,0,1,3.54948,23.68981q2.06291,53.02347-32.91524,92.95767c-17.60226,20.03934-39.28827,33.92415-64.57049,42.24905a96.04487,96.04487,0,0,1-22.66509,4.10976,128.8242,128.8242,0,0,1-23.71756-.364,145.5552,145.5552,0,0,1-32.60473-7.50009c-1.13384-.39491-2.3-.7-3.45855-1.02037-4.94164-1.3665-7.08395-4.67067-6.108-9.71261.63247-3.26753,2.02513-6.14524,5.15726-7.78561a7.39172,7.39172,0,0,1,6.496-.05692,113.08352,113.08352,0,0,0,30.51519,7.78712,111.94185,111.94185,0,0,0,28.0697-.3737,107.13606,107.13606,0,0,0,44.55128-16.35838c16.77676-10.94971,30.40391-24.87634,39.78506-42.73017a119.47971,119.47971,0,0,0,12.42185-38.3313A89.20854,89.20854,0,0,0,309.92132,179.9441Z"/><path class="cls-3" d="M195.56418,82.76172c26.18974.41617,48.90761,9.46793,67.7937,27.6894A93.56292,93.56292,0,0,1,291.26073,164.097,102.31018,102.31018,0,0,1,292.66,184.40959,91.88528,91.88528,0,0,1,277.49906,231.858c-8.03275,12.35795-18.0789,22.63861-30.80728,30.20469a40.6009,40.6009,0,0,0-4.00668,2.827c-3.79941,2.93366-7.86146,2.64871-11.00606-.97246-2.20361-2.53757-3.76147-5.38706-2.95872-8.95063a9.41049,9.41049,0,0,1,4.34629-5.72039c3.07409-2.06067,6.24035-3.98233,9.19758-6.218,13.43855-10.15965,23.30212-22.9602,28.67622-39.02608a73.72654,73.72654,0,0,0,3.34086-28.26528,79.65292,79.65292,0,0,0-8.39454-31.9479c-7.03407-13.66574-16.8228-24.82439-30.37706-32.40339a82.8158,82.8158,0,0,0-26.36919-8.96128,83.85693,83.85693,0,0,0-17.86-1.30425,77.037,77.037,0,0,0-26.65191,6.046c-3.47568,1.44067-6.79285,1.508-9.6375-1.12714a10.56072,10.56072,0,0,1-3.20233-10.71109,6.25984,6.25984,0,0,1,4.20764-4.41512c9.49026-3.49762,19.05148-6.71967,29.23657-7.587C188.66838,83.03322,192.09581,82.76151,195.56418,82.76172Z"/><path class="cls-4" d="M257.36348,181.08416c-.26858,16.031-5.14944,30.33993-16.09771,42.28338-7.16571,7.817-16.15285,12.73082-26.21928,15.79215a68.46719,68.46719,0,0,1-18.66965,2.91912c-13.81863.27474-26.46061-3.19165-37.58876-11.59089a69.90331,69.90331,0,0,1-14.86489-15.68924c-1.01915-1.44076-2.09287-2.84551-3.058-4.32138-2.35958-3.60816-1.81183-7.134,1.5328-9.83972,2.91358-2.357,6.13147-3.6951,9.92668-2.4676,2.50444.81,4.15134,2.67646,5.54224,4.811a46.91332,46.91332,0,0,0,16.53141,15.82,44.38813,44.38813,0,0,0,51.95336-7.08764c7.69387-7.55693,12.371-16.65135,13.40457-27.35493,1.57788-16.34-4.52739-29.50514-17.32942-39.64577a46.88529,46.88529,0,0,0-7.4138-4.67671c-.53318-.27962-1.06025-.57091-1.59292-.85158-7.63871-4.02492-6.31519-11.108-2.45854-15.69446a7.143,7.143,0,0,1,8.39635-1.72571c20.076,9.05717,32.699,24.08215,36.70965,45.9726.27869,1.5211.54917,3.04743.72684,4.5825A70.727,70.727,0,0,1,257.36348,181.08416Z"/><path class="cls-5" d="M93.52108,186.47735c-.21615-7.46553,1.173-14.51559,3.08686-21.52164,1.49984-5.49035,4.9364-7.21307,10.50094-5.90714,4.85642,1.13979,7.01267,4.05231,6.82417,9.0097a26.36457,26.36457,0,0,1-.71195,4.18666c-2.34679,11.66615-2.42053,23.24546,1.482,34.62967,4.63477,13.52028,13.33124,23.81656,25.27124,31.49086a94.08632,94.08632,0,0,0,8.88234,4.98707,12.1665,12.1665,0,0,1,4.83609,3.7636c2.39468,3.44206,1.58271,6.89014-.1173,10.2463a7.32861,7.32861,0,0,1-7.10664,4.2611,9.81777,9.81777,0,0,1-3.5987-.93029c-22.6078-9.4688-37.53473-25.986-45.16508-49.20288C95.01713,203.31178,93.23371,194.98388,93.52108,186.47735Z"/></svg>