<svg width="30" height="29" viewBox="0 0 30 29" fill="none" xmlns="http://www.w3.org/2000/svg">
<path d="M25.6332 10.4376L25.327 10.2412C25.327 10.2167 25.327 10.1921 25.3208 10.1614C25.0333 4.86566 20.5833 0.625357 15.1833 0.502628C9.70204 0.379898 5.00205 4.57111 4.5708 9.90371L4.5333 10.278C4.51455 10.2903 4.50205 10.2964 4.4833 10.3087C0.102064 13.2665 -1.29168 19.1514 1.30206 23.7108C3.91456 28.2947 9.65204 30.1725 14.5208 28.0984C14.5708 28.08 14.6145 28.0554 14.6583 28.037C14.6708 28.0309 14.6895 28.0247 14.702 28.0125L14.9395 27.8897C14.9645 27.902 14.9958 27.9143 15.0208 27.9327C19.8708 30.2584 25.652 28.6016 28.4645 24.0728C31.327 19.4705 30.077 13.5426 25.6332 10.4376ZM24.1895 15.3836L24.3833 15.6597C25.5958 17.4761 25.6395 19.8325 24.4895 21.6858C23.3958 23.4408 21.4145 24.4717 19.3145 24.3797C18.6395 24.349 17.9708 24.1956 17.327 23.9256C17.0395 23.8028 16.8083 23.6924 16.5958 23.5635C16.4583 23.4776 16.327 23.3856 16.1958 23.2935C15.6708 22.913 15.2208 22.459 14.8583 21.9312C14.4458 21.3421 14.1583 20.6916 13.9958 19.9982L13.9895 19.9614L14.002 19.9246C14.2583 19.1514 14.2583 18.3291 14.0083 17.5498C13.777 16.8441 13.352 16.2182 12.7708 15.7395C12.602 15.6045 12.452 15.494 12.3083 15.4081C12.1395 15.3038 11.9458 15.2118 11.727 15.1259C11.2583 14.9418 10.752 14.8436 10.2458 14.8436C10.127 14.8436 10.0083 14.8497 9.88954 14.862C8.62704 14.9786 7.5208 15.6475 6.86455 16.7029C5.72705 18.5316 6.3208 20.931 8.18329 22.0478C8.69579 22.3546 9.27079 22.5387 9.87704 22.594L9.96454 22.6001L9.99579 22.6799C10.202 23.1646 10.452 23.6494 10.7458 24.1158L10.752 24.1281C10.7895 24.1956 10.8458 24.2692 10.8895 24.3367L10.5458 24.3551C8.39579 24.4103 6.42705 23.3119 5.3833 21.4771C4.33955 19.6484 4.4208 17.4148 5.58955 15.6475C5.9583 15.089 6.42705 14.6043 6.97705 14.1992C7.20205 14.0336 7.3958 13.9108 7.58955 13.8065C7.74579 13.7206 7.91455 13.6408 8.09579 13.5611C8.68329 13.3095 9.32079 13.156 9.97704 13.1131C10.177 13.1008 10.3958 13.1008 10.652 13.107C11.1333 13.1254 11.5958 13.199 12.0208 13.3279L12.0583 13.3401L12.0833 13.3708C12.2208 13.5181 12.3708 13.6531 12.5333 13.7758C12.852 14.0274 13.2083 14.2238 13.5895 14.3649C13.7833 14.4386 13.9895 14.4938 14.1895 14.5368C14.727 14.6472 15.2708 14.6411 15.8145 14.5306C16.027 14.4877 16.2208 14.4324 16.4083 14.3649C16.6145 14.2852 16.7833 14.2115 16.9333 14.1317C17.1083 14.0397 17.2833 13.917 17.4645 13.7758C17.5958 13.6715 17.727 13.5549 17.8645 13.4076C18.177 13.0885 18.4208 12.7265 18.602 12.3276C18.727 12.0515 18.8208 11.7569 18.8833 11.444C18.9583 11.0512 18.9708 10.6524 18.9208 10.2474C18.8583 9.74417 18.702 9.27166 18.452 8.83597C18.3958 8.73778 18.3333 8.6396 18.2645 8.54755C17.1208 6.89684 14.8333 6.3691 13.0583 7.3448C12.5333 7.63322 12.0895 8.03209 11.7395 8.52914L11.6895 8.60278L11.602 8.59051C11.2083 8.54755 10.802 8.52301 10.3958 8.52301C10.227 8.52301 10.0583 8.52914 9.88954 8.53528C9.81454 8.54142 9.72079 8.54755 9.63954 8.55369L9.78329 8.253C10.752 6.32001 12.752 5.09271 14.9333 5.09271C14.977 5.09271 15.0208 5.09271 15.0708 5.09271C17.2583 5.14181 19.1958 6.38751 20.1333 8.34505C20.427 8.9587 20.602 9.60303 20.6583 10.2596C20.677 10.4683 20.6833 10.6646 20.677 10.861C20.6708 11.0696 20.652 11.2906 20.6145 11.5299C20.5208 12.1619 20.3145 12.7756 20.0083 13.3463C19.927 13.4997 19.8395 13.647 19.7395 13.7942C19.4708 14.1931 19.1708 14.549 18.8395 14.8559L18.8083 14.8804L18.7708 14.8865C18.5895 14.9234 18.402 14.9786 18.2145 15.0461C17.8333 15.1872 17.477 15.3836 17.1583 15.6352C16.9833 15.7702 16.8208 15.9175 16.677 16.0709C16.352 16.4268 16.0895 16.8441 15.9083 17.3166C15.8083 17.5804 15.7395 17.8075 15.702 18.0284C15.6645 18.2432 15.6458 18.4211 15.6395 18.593C15.6333 18.7893 15.6458 18.998 15.6833 19.225C15.727 19.5196 15.802 19.8141 15.9208 20.0964C16.0395 20.391 16.1895 20.6671 16.3708 20.9187C16.5895 21.2255 16.8645 21.5017 17.1895 21.7471C17.5145 21.9926 17.8708 22.1889 18.252 22.3239C18.6645 22.4712 19.0895 22.551 19.5083 22.5633C19.6958 22.5633 19.8895 22.5571 20.1145 22.5265C22.0333 22.281 23.5145 20.661 23.5583 18.7648C23.5708 18.1757 23.452 17.5989 23.1895 17.0527L23.152 16.9729L23.2083 16.9054C23.527 16.4943 23.8208 16.0525 24.0708 15.5984C24.1145 15.5247 24.152 15.4572 24.1895 15.3836ZM15.1458 2.03061C19.2895 2.1288 22.8583 5.09885 23.627 9.0937C23.7458 9.70121 23.7958 10.3149 23.7833 10.9224C23.7833 10.9776 23.777 11.039 23.7708 11.0942L23.7645 11.1985C23.7395 11.6465 23.677 12.1006 23.5833 12.5301C23.4458 13.156 23.2395 13.7697 22.9645 14.3465C22.752 14.7945 22.5145 15.2118 22.252 15.5861C21.9208 16.0647 21.552 16.5004 21.1645 16.8809C21.6583 17.2982 21.9583 17.8873 22.002 18.5255C22.0083 18.593 22.0083 18.6605 22.0083 18.728C21.9895 19.538 21.552 20.2682 20.8458 20.6916C20.452 20.9248 20.002 21.0476 19.5458 21.0353C19.2895 21.0292 19.0333 20.9801 18.777 20.888C18.5895 20.8205 18.4208 20.7407 18.277 20.6426C18.0083 20.4707 17.7833 20.2437 17.602 19.9798C17.3895 19.6669 17.2583 19.3109 17.2145 18.9427C17.202 18.8384 17.1958 18.7341 17.1958 18.6237C17.202 18.3414 17.2645 18.0591 17.3708 17.7952L17.4645 17.5927C17.4958 17.5375 17.527 17.4823 17.5583 17.427L17.5833 17.3902C17.602 17.3595 17.627 17.3289 17.6458 17.2982L17.7833 17.1263C18.0458 16.8318 18.3708 16.6047 18.7458 16.4697C18.9833 16.3838 19.227 16.3286 19.4645 16.3163C19.7645 16.0831 20.052 15.8131 20.3333 15.5063C20.552 15.267 20.7395 15.0399 20.902 14.8068C21.1583 14.4447 21.3895 14.0458 21.5833 13.6163C21.8333 13.064 22.0145 12.4872 22.1145 11.9042C22.177 11.5606 22.2083 11.2169 22.2145 10.8733C22.2145 10.8303 22.2145 10.7935 22.2145 10.7505C22.2145 10.7137 22.2083 10.683 22.2083 10.6462C22.202 9.97122 22.1083 9.32075 21.927 8.7071C21.0333 5.68795 18.2895 3.61382 15.0895 3.54019C11.877 3.46655 8.99579 5.47931 7.9958 8.46778L7.8958 8.79301C7.8708 8.79915 7.83955 8.80528 7.81455 8.81142C7.35205 8.92801 6.88955 9.07529 6.4333 9.25938C6.33955 9.2962 6.2583 9.33302 6.1708 9.36984L6.2458 9.02006C7.10205 4.8718 10.8208 1.92016 15.1458 2.03061ZM13.0083 27.0245C9.03954 28.2334 4.70205 26.5336 2.66456 22.9683C0.645814 19.4275 1.37081 15.0461 4.4333 12.3092C4.9458 11.849 5.4958 11.4562 6.0708 11.1433C6.0958 11.131 6.1208 11.1187 6.1458 11.1065L6.1958 11.0819C6.5958 10.8671 7.0208 10.683 7.4583 10.5358C8.0708 10.3271 8.71454 10.1799 9.36454 10.1062C9.90204 10.0449 10.4333 10.0326 10.9458 10.0633C11.5333 10.1001 12.102 10.186 12.6395 10.3271C12.752 9.70121 13.1145 9.14279 13.6583 8.78687C13.7145 8.75006 13.7708 8.71324 13.8333 8.68256C14.6333 8.24073 15.6083 8.28982 16.3708 8.80529C16.6833 9.01393 16.9333 9.27779 17.1083 9.58462C17.2708 9.87303 17.3708 10.1921 17.402 10.5296C17.4145 10.6401 17.4145 10.7505 17.4083 10.861C17.3833 11.2783 17.2458 11.6894 17.0083 12.0392C16.8583 12.2663 16.6708 12.4626 16.452 12.6222C16.3645 12.6835 16.277 12.7449 16.1833 12.8001C15.8583 12.9781 15.4895 13.0763 15.102 13.0947H15.0583C15.027 13.0947 14.9833 13.1008 14.9583 13.0947C14.4583 13.0824 13.9833 12.9229 13.5833 12.6283C13.3583 12.4626 13.1645 12.2663 13.0145 12.0392C12.677 11.9165 12.3208 11.8122 11.952 11.7324C11.6145 11.6587 11.2833 11.6158 10.9645 11.5912C10.4645 11.5544 9.95829 11.5667 9.45204 11.6342C8.85204 11.714 8.2583 11.8674 7.6833 12.0944C7.37705 12.2172 7.10205 12.346 6.8458 12.481C6.77705 12.5179 6.71455 12.5608 6.65205 12.5976L6.5458 12.6651C5.96455 13.021 5.4458 13.4445 5.00205 13.9292C2.90206 16.212 2.51456 19.5503 4.03955 22.2319C5.56455 24.9074 8.60829 26.3188 11.6645 25.7911L12.002 25.7174C12.0208 25.742 12.0395 25.7604 12.0645 25.7849C12.3958 26.1286 12.7645 26.4599 13.152 26.7606C13.2208 26.8158 13.2958 26.8711 13.3645 26.9202L13.0083 27.0245ZM27.1395 23.2751C25.002 26.7177 20.7708 28.2518 16.8583 27.0061C16.177 26.7913 15.5458 26.509 14.977 26.1654L14.8833 26.104C14.4958 25.8647 14.1208 25.5886 13.7645 25.2879C13.2708 24.8645 12.827 24.3858 12.4458 23.8642C12.127 23.4285 11.852 22.9806 11.627 22.5265C11.3708 22.0049 11.1708 21.4771 11.027 20.9494C10.4145 21.158 9.73954 21.1212 9.15829 20.8328C9.09579 20.8021 9.03954 20.7714 8.97704 20.7346C8.42704 20.4094 8.0458 19.8878 7.8958 19.2741C7.7458 18.6605 7.8458 18.0284 8.17705 17.4884C8.41455 17.1079 8.75204 16.8073 9.16454 16.6047C9.80204 16.2918 10.5458 16.2734 11.1958 16.5557C11.2958 16.5986 11.3895 16.6477 11.4833 16.7029C11.8458 16.9238 12.1458 17.2368 12.352 17.6111C12.7208 18.2984 12.727 19.1084 12.3708 19.7957C12.477 20.4769 12.677 21.1396 12.977 21.7717C13.1958 22.2319 13.4645 22.6737 13.777 23.0787C14.1395 23.5512 14.5708 23.9808 15.0645 24.3613C15.3208 24.5576 15.5583 24.7233 15.7833 24.8583C15.8645 24.9074 15.9458 24.9504 16.027 24.9933L16.1395 25.0547C16.7395 25.3676 17.377 25.6008 18.0333 25.742C21.0708 26.3863 24.1958 25.0792 25.8082 22.4835C27.4645 19.8203 27.152 16.39 25.077 14.052L24.852 13.782C24.8583 13.7636 24.8645 13.7451 24.8708 13.7267C25.0145 13.2726 25.127 12.8063 25.202 12.346C25.2207 12.2478 25.2332 12.1558 25.2457 12.0638L25.5082 12.3092C28.677 15.1013 29.3645 19.7037 27.1395 23.2751Z" fill="url(#paint0_linear)"/>
<defs>
<linearGradient id="paint0_linear" x1="12.0061" y1="29.7211" x2="19.474" y2="1.33496" gradientUnits="userSpaceOnUse">
<stop stop-color="#4B2E83"/>
<stop offset="0.0133" stop-color="#4C2F85"/>
<stop offset="0.3064" stop-color="#5840AB"/>
<stop offset="0.5778" stop-color="#614CC6"/>
<stop offset="0.8175" stop-color="#6653D6"/>
<stop offset="1" stop-color="#6856DC"/>
</linearGradient>
</defs>
</svg>
