<svg width="24" height="24" viewBox="0 0 24 24" fill="none" xmlns="http://www.w3.org/2000/svg">
<path d="M5.84279 4.56825C9.2432 1.16784 14.7564 1.16784 18.1568 4.56825C21.5572 7.96866 21.5572 13.4818 18.1568 16.8822L16.9698 18.0561C16.0949 18.9148 14.9598 20.0187 13.5639 21.3683C12.6917 22.2117 11.3079 22.2115 10.4358 21.3681L6.94466 17.9722C6.5059 17.5414 6.13863 17.1781 5.84279 16.8822C2.44238 13.4818 2.44238 7.96866 5.84279 4.56825ZM17.0961 5.62891C14.2815 2.81429 9.71807 2.81429 6.90345 5.62891C4.08882 8.44354 4.08882 13.0069 6.90345 15.8216L8.39052 17.289C9.20943 18.0905 10.2389 19.0909 11.4786 20.2899C11.7693 20.571 12.2305 20.571 12.5213 20.2899L15.9162 16.9885C16.3851 16.5282 16.7785 16.1392 17.0961 15.8216C19.9107 13.0069 19.9107 8.44354 17.0961 5.62891ZM11.9998 7.99891C13.6575 7.99891 15.0013 9.34275 15.0013 11.0005C15.0013 12.6582 13.6575 14.002 11.9998 14.002C10.3421 14.002 8.99823 12.6582 8.99823 11.0005C8.99823 9.34275 10.3421 7.99891 11.9998 7.99891ZM11.9998 9.49891C11.1705 9.49891 10.4982 10.1712 10.4982 11.0005C10.4982 11.8297 11.1705 12.502 11.9998 12.502C12.8291 12.502 13.5013 11.8297 13.5013 11.0005C13.5013 10.1712 12.8291 9.49891 11.9998 9.49891Z" fill="#6E6E6E"/>
</svg>
