<svg width="20" height="19" viewBox="0 0 20 19" fill="none" xmlns="http://www.w3.org/2000/svg">
<path d="M4.74658 1.99954H8.21079C8.625 1.99954 8.96079 2.33533 8.96079 2.74954C8.96079 3.12924 8.67863 3.44303 8.31256 3.49269L8.21079 3.49954H4.74658C3.55572 3.49954 2.58094 4.4247 2.50177 5.59549L2.49658 5.74954V15.2495C2.49658 16.4404 3.42174 17.4152 4.59253 17.4944L4.74658 17.4995H14.2473C15.4382 17.4995 16.413 16.5744 16.4921 15.4036L16.4973 15.2495V14.7518C16.4973 14.3375 16.8331 14.0018 17.2473 14.0018C17.627 14.0018 17.9408 14.2839 17.9905 14.65L17.9973 14.7518V15.2495C17.9973 17.2538 16.425 18.8908 14.4465 18.9943L14.2473 18.9995H4.74658C2.74232 18.9995 1.10531 17.4272 1.00178 15.4487L0.996582 15.2495V5.74954C0.996582 3.74528 2.56894 2.10827 4.54742 2.00474L4.74658 1.99954H8.21079H4.74658ZM12.5006 4.5194V1.74954C12.5006 1.12557 13.2074 0.789488 13.6876 1.13934L13.7697 1.20828L19.7643 6.95828C20.0441 7.22663 20.0696 7.65765 19.8407 7.95561L19.7644 8.04071L13.7698 13.7926C13.3196 14.2246 12.5877 13.9472 12.5077 13.3584L12.5006 13.2514V10.5261L12.1571 10.5562C9.75739 10.8065 7.45735 11.8874 5.24253 13.8169C4.72342 14.2691 3.92029 13.8415 4.00567 13.1584C4.67046 7.83884 7.45233 4.90684 12.2012 4.53904L12.5006 4.5194V1.74954V4.5194ZM14.0006 3.50818V5.24954C14.0006 5.66375 13.6648 5.99954 13.2506 5.99954C9.37717 5.99954 6.97655 7.67567 5.93931 11.1567L5.86025 11.4353L6.21244 11.1985C8.44892 9.73673 10.7983 8.99954 13.2506 8.99954C13.6303 8.99954 13.9441 9.2817 13.9937 9.64777L14.0006 9.74954V11.4924L18.1618 7.49963L14.0006 3.50818Z" fill="#6E6E6E"/>
</svg>
