<svg width="20" height="18" viewBox="0 0 20 18" fill="none" xmlns="http://www.w3.org/2000/svg">
<path d="M8.90983 0.274409C9.94876 -0.285676 11.2457 0.0397694 11.8831 0.994305L11.9658 1.12834L19.7185 14.7516C19.9031 15.0761 20 15.4409 20 15.8118C20 16.97 19.0756 17.918 17.9057 17.995L17.7518 18H2.2486C1.86759 18 1.49284 17.9058 1.15953 17.7261C0.120526 17.1662 -0.284187 15.9235 0.208969 14.8912L0.281808 14.7518L8.03234 1.12857C8.2367 0.769357 8.54078 0.473358 8.90983 0.274409ZM10.0009 13.1307C9.4498 13.1307 9.00304 13.5655 9.00304 14.1019C9.00304 14.6383 9.4498 15.0731 10.0009 15.0731C10.552 15.0731 10.9988 14.6383 10.9988 14.1019C10.9988 13.5655 10.552 13.1307 10.0009 13.1307ZM9.99874 5.34696C9.48632 5.34714 9.06413 5.72272 9.00659 6.20641L8.99991 6.31982L9.00171 11.1833L9.00847 11.2967C9.06637 11.7803 9.48884 12.1556 10.0013 12.1554C10.5137 12.1553 10.9359 11.7797 10.9934 11.296L11.0001 11.1826L10.9983 6.31912L10.9915 6.20571C10.9336 5.72206 10.5112 5.34678 9.99874 5.34696Z" fill="#6E6E6E"/>
</svg>
